<?xml version="1.0" encoding="UTF-8"?>
<svg xmlns="http://www.w3.org/2000/svg" xmlns:xlink="http://www.w3.org/1999/xlink" width="109px" height="45px" viewBox="0 0 109 45" version="1.1">
<g id="surface1">
<path style=" stroke:none;fill-rule:nonzero;fill:rgb(0%,0%,0%);fill-opacity:1;" d="M 3.96875 3.164062 C 3.621094 3.324219 3.050781 3.769531 2.699219 4.15625 C 2.097656 4.824219 2.0625 5.304688 2.0625 20.488281 L 2.0625 36.113281 L 2.953125 36.976562 L 3.8125 37.871094 L 34.9375 37.871094 L 35.792969 36.976562 L 36.683594 36.113281 L 36.683594 4.792969 L 35.792969 3.929688 L 34.9375 3.035156 L 19.753906 2.972656 C 11.433594 2.941406 4.320312 3.035156 3.96875 3.164062 Z M 24.199219 10.324219 C 26.296875 11.347656 28.679688 13.808594 29.632812 15.917969 C 30.617188 18.058594 30.617188 22.851562 29.632812 24.992188 C 28.679688 27.101562 26.296875 29.5625 24.167969 30.585938 C 22.613281 31.386719 22.007812 31.480469 19.375 31.480469 C 16.738281 31.480469 16.132812 31.386719 14.578125 30.585938 C 12.449219 29.5625 10.066406 27.101562 9.113281 24.992188 C 8.128906 22.851562 8.128906 18.058594 9.113281 15.917969 C 9.910156 14.191406 11.972656 11.824219 13.5625 10.835938 C 16.484375 9.011719 21.089844 8.789062 24.199219 10.324219 Z M 24.199219 10.324219 "/>
<path style=" stroke:none;fill-rule:nonzero;fill:rgb(0%,0%,0%);fill-opacity:1;" d="M 15.085938 11.472656 C 11.433594 13.230469 9.527344 16.300781 9.527344 20.453125 C 9.527344 26.207031 13.625 30.363281 19.375 30.363281 C 23.503906 30.363281 26.550781 28.445312 28.296875 24.769531 C 29.058594 23.171875 29.21875 22.4375 29.21875 20.453125 C 29.21875 14.703125 25.121094 10.546875 19.375 10.546875 C 17.40625 10.546875 16.675781 10.707031 15.085938 11.472656 Z M 22.484375 14.605469 L 22.582031 17.257812 L 24.867188 17.257812 C 26.136719 17.257812 27.34375 17.386719 27.566406 17.515625 C 27.851562 17.707031 27.949219 18.601562 27.886719 20.804688 L 27.789062 23.808594 L 25.1875 23.90625 L 22.582031 24.003906 L 22.484375 26.621094 L 22.390625 29.242188 L 20.007812 29.339844 C 16.164062 29.5 16.199219 29.53125 16.199219 26.527344 L 16.199219 23.96875 L 14.007812 23.96875 C 10.703125 23.96875 10.796875 24.066406 10.796875 20.613281 C 10.796875 17.164062 10.703125 17.257812 14.007812 17.257812 L 16.199219 17.257812 L 16.199219 14.734375 C 16.199219 13.007812 16.324219 12.144531 16.609375 12.015625 C 16.800781 11.953125 18.199219 11.890625 19.691406 11.921875 L 22.390625 11.984375 Z M 22.484375 14.605469 "/>
<path style=" stroke:none;fill-rule:nonzero;fill:rgb(0%,0%,0%);fill-opacity:1;" d="M 17.40625 15.722656 L 17.308594 18.378906 L 14.703125 18.472656 L 12.070312 18.570312 L 12.070312 22.660156 L 14.703125 22.753906 L 17.308594 22.851562 L 17.40625 25.472656 L 17.5 28.125 L 21.277344 28.125 L 21.277344 25.917969 C 21.277344 22.660156 21.246094 22.691406 24.167969 22.691406 L 26.679688 22.691406 L 26.679688 18.535156 L 24.167969 18.535156 C 21.246094 18.535156 21.277344 18.570312 21.277344 15.308594 L 21.277344 13.105469 L 17.5 13.105469 Z M 17.40625 15.722656 "/>
<path style=" stroke:none;fill-rule:nonzero;fill:rgb(0%,0%,0%);fill-opacity:1;" d="M 47.988281 9.589844 C 44.84375 10.355469 42.84375 14.03125 43.828125 17.164062 C 44.113281 17.992188 45.164062 19.304688 47.195312 21.316406 C 50.5625 24.640625 51.101562 25.855469 49.957031 27.421875 C 48.972656 28.730469 47.640625 28.988281 45.988281 28.15625 C 45.195312 27.804688 44.433594 27.484375 44.242188 27.484375 C 43.859375 27.484375 43.160156 29.914062 43.414062 30.523438 C 43.636719 31.160156 44.398438 31.351562 47.164062 31.542969 C 49.417969 31.671875 49.863281 31.609375 51.101562 30.9375 C 53.800781 29.46875 54.753906 26.046875 53.292969 23.074219 C 52.847656 22.246094 51.449219 20.582031 49.894531 19.144531 C 47.289062 16.714844 47.195312 16.585938 47.195312 15.148438 C 47.164062 13.902344 47.289062 13.550781 48.019531 13.039062 C 48.878906 12.367188 49.070312 12.402344 51.164062 13.261719 C 51.578125 13.421875 51.800781 13.136719 52.179688 12.015625 C 52.625 10.707031 52.625 10.515625 52.214844 10.066406 C 51.925781 9.8125 51.417969 9.589844 51.039062 9.589844 C 50.65625 9.589844 50.054688 9.523438 49.703125 9.460938 C 49.355469 9.363281 48.59375 9.429688 47.988281 9.589844 Z M 47.988281 9.589844 "/>
<path style=" stroke:none;fill-rule:nonzero;fill:rgb(0%,0%,0%);fill-opacity:1;" d="M 86.703125 9.652344 C 84.101562 10.386719 82.609375 12.558594 82.574219 15.5 C 82.574219 17.546875 83.050781 18.3125 86.515625 21.765625 C 88.960938 24.226562 89.246094 24.640625 89.246094 25.695312 C 89.246094 27.324219 88.800781 27.996094 87.5 28.445312 C 86.292969 28.859375 85.402344 28.667969 84.132812 27.773438 C 83.050781 27.007812 82.574219 27.484375 82.480469 29.433594 C 82.417969 30.746094 82.480469 30.839844 83.527344 31.226562 C 84.132812 31.417969 85.5625 31.609375 86.703125 31.609375 C 90.960938 31.640625 93.597656 28.605469 92.707031 24.671875 C 92.292969 22.753906 91.152344 21.191406 88.453125 18.730469 C 86.671875 17.128906 86.039062 16.332031 85.878906 15.53125 C 85.496094 13.359375 87.085938 12.082031 89.148438 12.945312 C 89.753906 13.199219 90.324219 13.421875 90.390625 13.421875 C 90.609375 13.421875 91.46875 11.121094 91.46875 10.546875 C 91.46875 10.097656 91.054688 9.875 89.878906 9.621094 C 88.039062 9.238281 88.195312 9.203125 86.703125 9.652344 Z M 86.703125 9.652344 "/>
<path style=" stroke:none;fill-rule:nonzero;fill:rgb(0%,0%,0%);fill-opacity:1;" d="M 57.167969 9.941406 C 57.167969 10.132812 58.3125 15.054688 59.707031 20.839844 C 61.105469 26.65625 62.25 31.449219 62.25 31.511719 C 62.25 31.578125 62.949219 31.640625 63.804688 31.640625 L 65.363281 31.640625 L 65.871094 29.308594 C 67.617188 21.382812 67.996094 20.230469 68.410156 21.636719 C 68.601562 22.308594 70.507812 31.289062 70.507812 31.480469 C 70.507812 31.578125 71.207031 31.640625 72.09375 31.640625 C 73.554688 31.640625 73.683594 31.578125 73.875 30.746094 C 74.570312 27.613281 78.480469 12.464844 78.734375 11.730469 C 79.429688 9.875 79.273438 9.589844 77.367188 9.589844 C 76.414062 9.589844 75.558594 9.714844 75.429688 9.90625 C 75.335938 10.066406 74.636719 12.65625 73.875 15.660156 C 72.601562 20.773438 72.285156 21.699219 71.96875 21.382812 C 71.90625 21.316406 71.460938 18.953125 70.984375 16.140625 C 70.539062 13.328125 70.09375 10.707031 70 10.292969 C 69.871094 9.621094 69.714844 9.554688 68.0625 9.652344 C 66.25 9.746094 66.25 9.746094 66.027344 10.867188 C 65.902344 11.472656 65.425781 14.09375 64.949219 16.683594 C 64.472656 19.304688 63.996094 21.414062 63.871094 21.414062 C 63.742188 21.414062 63.457031 20.644531 63.265625 19.71875 C 63.042969 18.824219 62.441406 16.140625 61.867188 13.808594 L 60.882812 9.589844 L 59.011719 9.589844 C 57.867188 9.589844 57.167969 9.714844 57.167969 9.941406 Z M 57.167969 9.941406 "/>
<path style=" stroke:none;fill-rule:nonzero;fill:rgb(0%,0%,0%);fill-opacity:1;" d="M 96.234375 20.613281 L 96.234375 31.640625 L 97.628906 31.640625 C 99.34375 31.640625 99.410156 31.480469 99.410156 26.910156 L 99.410156 23.652344 L 100.773438 23.652344 C 102.519531 23.617188 104.523438 22.691406 105.378906 21.507812 C 107.347656 18.730469 106.839844 13.230469 104.425781 10.960938 C 103.285156 9.875 102.140625 9.589844 99.058594 9.589844 L 96.234375 9.589844 Z M 101.917969 13.679688 C 104.078125 15.820312 103.0625 20.453125 100.359375 20.839844 L 99.566406 20.933594 L 99.472656 16.84375 L 99.375 12.785156 L 100.203125 12.785156 C 100.710938 12.785156 101.410156 13.167969 101.917969 13.679688 Z M 101.917969 13.679688 "/>
</g>
</svg>
